<svg xmlns="http://www.w3.org/2000/svg" width="144" height="144" viewBox="0 0 144 144">
  <defs>
    <linearGradient id="bg" x1="14" y1="8" x2="134" y2="140" gradientUnits="userSpaceOnUse">
      <stop offset="0" stop-color="#fff8df"/>
      <stop offset=".52" stop-color="#f0cf83"/>
      <stop offset="1" stop-color="#dbe8d0"/>
    </linearGradient>
    <linearGradient id="bar" x1="23" y1="105" x2="121" y2="105" gradientUnits="userSpaceOnUse">
      <stop offset="0" stop-color="#12813b"/>
      <stop offset=".55" stop-color="#d3a00f"/>
      <stop offset="1" stop-color="#d93b3b"/>
    </linearGradient>
    <filter id="shadow" x="-25%" y="-25%" width="150%" height="150%">
      <feDropShadow dx="0" dy="4" stdDeviation="3" flood-color="#5b3f1f" flood-opacity=".25"/>
    </filter>
  </defs>

  <rect width="144" height="144" rx="30" fill="url(#bg)"/>
  <path d="M18 90C31 52 52 38 72 38s41 14 54 52c-12 25-33 38-54 38S30 115 18 90Z" fill="#fffdfa" stroke="#191816" stroke-width="7" filter="url(#shadow)"/>
  <circle cx="72" cy="88" r="25" fill="#191816"/>
  <circle cx="72" cy="88" r="15" fill="#d3a00f"/>
  <circle cx="78" cy="81" r="6" fill="#fffdfa"/>

  <path d="M43 42l9-20 13 14 8-20 9 20 13-14 8 20Z" fill="#d3a00f" stroke="#191816" stroke-width="5" stroke-linejoin="round"/>
  <path d="M47 45h50" stroke="#191816" stroke-width="5" stroke-linecap="round"/>

  <circle cx="36" cy="72" r="13" fill="#fffdfa" stroke="#191816" stroke-width="4"/>
  <text x="36" y="78" text-anchor="middle" font-family="Arial Black, sans-serif" font-size="19" font-weight="900" fill="#1727a4">1</text>
  <circle cx="108" cy="72" r="13" fill="#fffdfa" stroke="#191816" stroke-width="4"/>
  <text x="108" y="78" text-anchor="middle" font-family="Arial Black, sans-serif" font-size="18" font-weight="900" fill="#d93b3b">9</text>

  <rect x="19" y="12" width="106" height="25" rx="12" fill="#191816"/>
  <text x="72" y="31" text-anchor="middle" font-family="'PingFang SC','Heiti SC','Microsoft YaHei',sans-serif" font-size="18" font-weight="900" fill="#fffaf1">眼力</text>

  <rect x="19" y="109" width="106" height="24" rx="12" fill="#191816"/>
  <rect x="23" y="103" width="98" height="7" rx="3.5" fill="url(#bar)" stroke="#191816" stroke-width="2"/>
  <text x="72" y="128" text-anchor="middle" font-family="'PingFang SC','Heiti SC','Microsoft YaHei',sans-serif" font-size="17" font-weight="900" fill="#fffaf1">冲关王</text>
</svg>
